<svg width="960" height="720" viewBox="0 0 960 720" fill="none" xmlns="http://www.w3.org/2000/svg">
<rect width="960" height="720" rx="36" fill="#10151E"/>
<circle cx="230" cy="182" r="128" fill="#56E240" fill-opacity=".08"/>
<circle cx="766" cy="580" r="146" fill="#195EE2" fill-opacity=".16"/>
<rect x="118" y="144" width="724" height="432" rx="36" fill="#0D131D" stroke="#30415D"/>
<rect x="170" y="196" width="180" height="152" rx="24" fill="#111927"/>
<rect x="390" y="196" width="180" height="152" rx="24" fill="#111927"/>
<rect x="610" y="196" width="180" height="152" rx="24" fill="#111927"/>
<rect x="170" y="372" width="620" height="152" rx="24" fill="#111927"/>
<rect x="214" y="242" width="92" height="14" rx="7" fill="#EAF0FF"/>
<rect x="434" y="242" width="92" height="14" rx="7" fill="#B3C5FF"/>
<rect x="654" y="242" width="92" height="14" rx="7" fill="#56E240"/>
<rect x="214" y="418" width="120" height="14" rx="7" fill="#EAF0FF"/>
<rect x="214" y="450" width="220" height="12" rx="6" fill="#64748F"/>
</svg>
