<svg width="960" height="720" viewBox="0 0 960 720" fill="none" xmlns="http://www.w3.org/2000/svg">
<rect width="960" height="720" rx="36" fill="#10151E"/>
<circle cx="216" cy="148" r="116" fill="#56E240" fill-opacity=".09"/>
<circle cx="756" cy="584" r="138" fill="#195EE2" fill-opacity=".16"/>
<rect x="124" y="150" width="712" height="420" rx="36" fill="#0D131D" stroke="#30415D"/>
<rect x="176" y="210" width="202" height="300" rx="26" fill="#111927"/>
<rect x="404" y="210" width="180" height="138" rx="26" fill="#111927"/>
<rect x="610" y="210" width="176" height="138" rx="26" fill="#111927"/>
<rect x="404" y="372" width="382" height="138" rx="26" fill="#111927"/>
<path d="M378 280H404" stroke="#B3C5FF" stroke-width="6" stroke-linecap="round"/>
<path d="M584 280H610" stroke="#56E240" stroke-width="6" stroke-linecap="round"/>
<rect x="206" y="250" width="124" height="14" rx="7" fill="#EAF0FF"/>
<rect x="438" y="246" width="108" height="14" rx="7" fill="#B3C5FF"/>
<rect x="644" y="246" width="100" height="14" rx="7" fill="#56E240"/>
<rect x="438" y="412" width="138" height="14" rx="7" fill="#EAF0FF"/>
<rect x="438" y="444" width="228" height="12" rx="6" fill="#64748F"/>
</svg>
