<svg width="1200" height="900" viewBox="0 0 1200 900" fill="none" xmlns="http://www.w3.org/2000/svg">
<rect width="1200" height="900" rx="40" fill="#111720"/>
<circle cx="960" cy="184" r="156" fill="#195EE2" fill-opacity=".2"/>
<circle cx="254" cy="748" r="168" fill="#56E240" fill-opacity=".08"/>
<rect x="112" y="194" width="306" height="188" rx="34" fill="#0D131D" stroke="#2B3D58"/>
<rect x="446" y="124" width="306" height="258" rx="34" fill="#101724" stroke="#3A4E70"/>
<rect x="780" y="278" width="306" height="188" rx="34" fill="#0D131D" stroke="#2B3D58"/>
<path d="M418 288H446" stroke="#B3C5FF" stroke-width="6" stroke-linecap="round"/>
<path d="M752 288H780" stroke="#56E240" stroke-width="6" stroke-linecap="round"/>
<rect x="164" y="248" width="140" height="16" rx="8" fill="#EAF0FF"/>
<rect x="164" y="288" width="188" height="14" rx="7" fill="#5E6D87"/>
<rect x="164" y="320" width="158" height="14" rx="7" fill="#4A566B"/>
<rect x="498" y="184" width="160" height="16" rx="8" fill="#B3C5FF"/>
<rect x="498" y="224" width="204" height="14" rx="7" fill="#6B7C99"/>
<rect x="498" y="256" width="164" height="14" rx="7" fill="#55647D"/>
<rect x="498" y="308" width="118" height="46" rx="23" fill="#195EE2"/>
<rect x="832" y="332" width="146" height="16" rx="8" fill="#56E240"/>
<rect x="832" y="372" width="194" height="14" rx="7" fill="#6B7C99"/>
<rect x="832" y="404" width="164" height="14" rx="7" fill="#55647D"/>
<rect x="164" y="562" width="922" height="154" rx="36" fill="#0D131D" stroke="#263248"/>
<path d="M214 638H1036" stroke="#25344A" stroke-width="2" stroke-dasharray="10 10"/>
<circle cx="330" cy="638" r="16" fill="#EAF0FF"/>
<circle cx="600" cy="638" r="16" fill="#B3C5FF"/>
<circle cx="870" cy="638" r="16" fill="#56E240"/>
</svg>
