<svg width="960" height="720" viewBox="0 0 960 720" fill="none" xmlns="http://www.w3.org/2000/svg">
<rect width="960" height="720" rx="36" fill="#10151E"/>
<circle cx="762" cy="162" r="126" fill="#195EE2" fill-opacity=".18"/>
<rect x="118" y="150" width="724" height="418" rx="36" fill="#0D131D" stroke="#30415D"/>
<rect x="170" y="212" width="620" height="60" rx="18" fill="#111927"/>
<rect x="170" y="302" width="620" height="188" rx="24" fill="#111927"/>
<path d="M222 334H736" stroke="#25344A" stroke-width="2"/>
<path d="M222 390H736" stroke="#25344A" stroke-width="2"/>
<path d="M222 446H736" stroke="#25344A" stroke-width="2"/>
<path d="M314 302V490" stroke="#25344A" stroke-width="2"/>
<path d="M492 302V490" stroke="#25344A" stroke-width="2"/>
<path d="M640 302V490" stroke="#25344A" stroke-width="2"/>
<rect x="208" y="232" width="124" height="14" rx="7" fill="#EAF0FF"/>
<rect x="244" y="352" width="44" height="30" rx="10" fill="#56E240"/>
<rect x="356" y="408" width="96" height="30" rx="10" fill="#B3C5FF"/>
<rect x="542" y="352" width="130" height="30" rx="10" fill="#195EE2"/>
</svg>
